<?xml version="1.0" standalone="no"?>
<!DOCTYPE svg PUBLIC "-//W3C//DTD SVG 20010904//EN"
 "http://www.w3.org/TR/2001/REC-SVG-20010904/DTD/svg10.dtd">
<svg version="1.0" xmlns="http://www.w3.org/2000/svg"
 width="1600.000000pt" height="1600.000000pt" viewBox="0 0 1600.000000 1600.000000"
 preserveAspectRatio="xMidYMid meet">
<metadata>
Created by potrace 1.14, written by Peter Selinger 2001-2017
</metadata>
<g transform="translate(0.000000,1600.000000) scale(0.100000,-0.100000)"
fill="#000000" stroke="none">
<path d="M0 8000 l0 -8000 8000 0 8000 0 0 8000 0 8000 -8000 0 -8000 0 0
-8000z m5490 2100 l0 -430 -800 0 -800 0 0 -2085 0 -2085 -490 0 -490 0 0
2085 0 2085 -800 0 -800 0 0 430 0 430 2090 0 2090 0 0 -430z m4390 0 l0 -430
-805 0 -805 0 0 -2085 0 -2085 -485 0 -485 0 0 2085 0 2085 -805 0 -805 0 0
430 0 430 2095 0 2095 0 0 -430z"/>
</g>
</svg>
